<svg width="189" height="43" viewBox="0 0 189 43" fill="none" xmlns="http://www.w3.org/2000/svg">
<path d="M50.7794 11.6533L44.8271 29.1533H48.2357L49.7759 24.5265H57.4117L58.991 29.1533H62.5193L56.3727 11.6533H50.7794ZM50.7356 21.6227L53.1051 14.5039H53.9889L56.4165 21.6227H50.7356Z" fill="currentColor"/>
<path d="M68.3723 17.4183C67.7672 18.1496 67.3913 19.1357 67.2444 20.3766V16.1356H64.6035V29.1521H67.9398V22.393C67.9398 21.2586 68.2479 20.3877 68.8639 19.7802C69.48 19.1728 70.3488 18.8691 71.4704 18.8691H72.378V15.9676H71.904C70.3496 15.9676 69.1724 16.4512 68.3723 17.4183Z" fill="currentColor"/>
<path d="M83.5049 16.6031C82.5571 15.9885 81.3771 15.6809 79.9649 15.6801C78.9874 15.6609 78.0173 15.8534 77.1214 16.2445C76.3349 16.5915 75.6343 17.107 75.0694 17.7544C74.5229 18.3879 74.103 19.1202 73.8325 19.9116C73.5532 20.7173 73.4114 21.5641 73.4131 22.4167V22.8722C73.4134 23.705 73.5552 24.5316 73.8325 25.317C74.1097 26.1118 74.5332 26.8478 75.0813 27.4872C75.6543 28.15 76.3672 28.6777 77.1688 29.0326C78.0092 29.416 78.9894 29.6077 80.1094 29.6077C81.0934 29.6249 82.0702 29.4375 82.9777 29.0574C83.7866 28.7138 84.4998 28.179 85.0558 27.499C85.6061 26.8147 85.9847 26.009 86.16 25.1489H83.0618C82.9173 25.6294 82.5891 26.0329 82.0773 26.3595C81.5655 26.6861 80.9095 26.8501 80.1094 26.8517C79.2927 26.8517 78.6213 26.6719 78.0953 26.3121C77.5617 25.9469 77.1515 25.4287 76.9188 24.8259C76.7492 24.3907 76.6377 23.9352 76.5871 23.471H86.3756V22.2486C86.3822 21.131 86.1334 20.0265 85.6482 19.0194C85.1743 18.0294 84.4317 17.1922 83.5049 16.6031ZM78.0929 18.9531C78.6047 18.6084 79.2287 18.4364 79.9649 18.4372C80.701 18.438 81.3092 18.5958 81.7894 18.9105C82.2821 19.2468 82.6626 19.7228 82.8818 20.2772C83.027 20.6391 83.1269 21.0174 83.1791 21.4038H76.6369C76.697 21.0584 76.7952 20.7206 76.9295 20.3968C77.166 19.8113 77.5708 19.309 78.0929 18.9531Z" fill="currentColor"/>
<path d="M96.7537 16.4717C95.8651 16.119 94.7491 15.9427 93.4056 15.9427C92.9731 15.9427 92.5087 15.9427 92.0135 15.9546C91.5182 15.9664 91.042 15.983 90.5846 16.0149C90.1273 16.0469 89.7174 16.0788 89.3489 16.1108V18.9389C89.7968 18.9081 90.305 18.8805 90.8737 18.856C91.4412 18.8312 92.0052 18.8123 92.5656 18.7957C93.126 18.7791 93.6058 18.772 94.0051 18.772C94.7578 18.772 95.3178 18.9598 95.6851 19.3353C96.0523 19.7108 96.2364 20.2662 96.2372 21.0014V21.1197H93.5975C92.4443 21.1197 91.4361 21.2716 90.5728 21.5753C89.7095 21.879 89.0456 22.3346 88.5812 22.942C88.1168 23.5494 87.885 24.3324 87.8857 25.2909C87.8857 26.1697 88.0832 26.9191 88.4781 27.5392C88.8753 28.1672 89.446 28.667 90.1214 28.9781C90.8259 29.3142 91.6501 29.4818 92.594 29.481C93.5063 29.481 94.2783 29.3173 94.9102 28.9899C95.5348 28.669 96.0519 28.1731 96.3983 27.5628C96.5606 27.2703 96.6901 26.9608 96.7845 26.6399V29.1532H99.4491V21.0984C99.4491 19.8843 99.2212 18.8982 98.7655 18.1401C98.3018 17.3738 97.5931 16.786 96.7537 16.4717ZM94.8332 26.8635C94.4273 27.0343 93.9906 27.1201 93.5501 27.1156C92.7808 27.1156 92.1924 26.9318 91.7848 26.5641C91.5915 26.3776 91.4378 26.1542 91.3328 25.9071C91.2278 25.6599 91.1737 25.3943 91.1737 25.1258C91.1737 24.8574 91.2278 24.5917 91.3328 24.3446C91.4378 24.0975 91.5915 23.874 91.7848 23.6875C92.1939 23.3199 92.7824 23.1361 93.5501 23.1361H96.2372V24.3348C96.2056 25.0377 96.0618 25.593 95.8059 26.0009C95.5787 26.3819 95.2389 26.6833 94.8332 26.8635Z" fill="currentColor"/>
<path d="M120.291 16.4161C119.619 15.9602 118.779 15.7326 117.771 15.7334H117.627C116.635 15.7334 115.805 15.961 115.139 16.4161C114.472 16.8713 113.968 17.5419 113.627 18.4278C113.596 18.507 113.569 18.5887 113.542 18.6715C113.515 18.5887 113.488 18.507 113.459 18.4278C113.131 17.5419 112.635 16.8713 111.971 16.4161C111.306 15.961 110.47 15.7318 109.461 15.7286H109.318C108.325 15.7286 107.496 15.9562 106.83 16.4114C106.164 16.8666 105.667 17.5387 105.338 18.4278C105.23 18.7198 105.141 19.0192 105.074 19.3235V16.1357H102.435V29.1521H105.771V21.5292C105.771 20.6662 106.003 19.983 106.466 19.4797C106.93 18.9764 107.546 18.7248 108.315 18.7248C109.067 18.7248 109.655 18.9685 110.079 19.4561C110.503 19.9436 110.715 20.6027 110.715 21.4334V29.1533H114.051V21.5292C114.051 20.6662 114.283 19.983 114.747 19.4797C115.21 18.9764 115.826 18.7248 116.595 18.7248C117.347 18.7248 117.935 18.9685 118.359 19.4561C118.783 19.9436 118.995 20.6027 118.995 21.4334V29.1533H122.332V21.7221C122.332 20.411 122.159 19.3121 121.815 18.4254C121.471 17.5387 120.963 16.8689 120.291 16.4161Z" fill="currentColor"/>
<path d="M134.937 9.56828H131.48L129.344 14.4826H132.2L134.937 9.56828Z" fill="currentColor"/>
<path d="M134.541 16.603C133.593 15.9885 132.413 15.6808 131.001 15.68C130.024 15.6611 129.054 15.8537 128.158 16.2445C127.371 16.5917 126.671 17.1072 126.106 17.7544C125.558 18.3878 125.136 19.12 124.864 19.9116C124.584 20.7171 124.442 21.564 124.443 22.4166V22.8722C124.444 23.705 124.586 24.5316 124.864 25.3169C125.141 26.1117 125.565 26.8478 126.113 27.4871C126.685 28.1502 127.398 28.678 128.2 29.0325C129.04 29.4159 130.02 29.6076 131.141 29.6076C132.124 29.6248 133.101 29.4374 134.008 29.0574C134.816 28.7131 135.529 28.1784 136.085 27.499C136.635 26.8147 137.014 26.0089 137.189 25.1489H134.092C133.948 25.6293 133.621 26.0328 133.109 26.3594C132.597 26.686 131.942 26.8501 131.143 26.8517C130.327 26.8517 129.656 26.6718 129.129 26.3121C128.596 25.9469 128.185 25.4287 127.953 24.8259C127.782 24.3911 127.67 23.9354 127.621 23.471H137.409V22.2486C137.417 21.1331 137.171 20.0305 136.689 19.0241C136.215 18.0318 135.47 17.1928 134.541 16.603ZM129.129 18.9531C129.641 18.6083 130.265 18.4364 131.001 18.4372C131.737 18.4379 132.345 18.5957 132.826 18.9105C133.318 19.2465 133.698 19.7227 133.917 20.2772C134.062 20.639 134.163 21.0173 134.215 21.4037H127.673C127.733 21.0584 127.831 20.7207 127.965 20.3967C128.201 19.8111 128.607 19.3087 129.129 18.9531Z" fill="currentColor"/>
<path d="M149.577 17.971C149.177 17.3129 148.615 16.7679 147.944 16.3877C147.113 15.9366 146.178 15.7095 145.232 15.7286C144.365 15.7159 143.505 15.892 142.712 16.2445C141.972 16.5775 141.31 17.0612 140.768 17.6645C140.216 18.2855 139.792 19.0093 139.521 19.7945C139.228 20.6344 139.082 21.5181 139.088 22.4072V22.9243C139.08 23.8238 139.235 24.7172 139.544 25.5619C139.83 26.3484 140.271 27.0698 140.84 27.6836C141.399 28.2775 142.072 28.7517 142.82 29.0776C143.62 29.4206 144.482 29.592 145.352 29.5805C146.302 29.5952 147.239 29.3684 148.077 28.9214C148.907 28.4598 149.586 27.7692 150.033 26.9322C150.12 26.7714 150.199 26.6063 150.27 26.4376V29.1497H152.942V11.6533H149.577V17.971ZM149.673 23.0403C149.69 23.739 149.52 24.4296 149.181 25.0413C148.878 25.5846 148.429 26.0328 147.885 26.3358C147.337 26.6346 146.721 26.7874 146.096 26.7796C145.435 26.7953 144.784 26.622 144.218 26.28C143.653 25.9381 143.197 25.4417 142.904 24.8496C142.573 24.1755 142.41 23.4312 142.43 22.6806C142.415 21.93 142.577 21.1863 142.904 20.5104C143.196 19.9182 143.644 19.417 144.2 19.0608C144.772 18.7039 145.434 18.5205 146.108 18.5331C146.717 18.5299 147.319 18.674 147.86 18.9531C148.402 19.2299 148.858 19.6483 149.18 20.1637C149.516 20.6914 149.685 21.3304 149.685 22.0806L149.673 23.0403Z" fill="currentColor"/>
<path d="M155.289 16.1357V18.6289H157.114V29.1533H160.45V18.6289V16.1357H157.114H155.289Z" fill="currentColor"/>
<path d="M158.338 14.5784C158.994 14.5784 159.474 14.4103 159.777 14.0743C160.081 13.7382 160.233 13.2988 160.233 12.7561C160.253 12.2822 160.089 11.8189 159.777 11.4615C159.474 11.1255 158.994 10.9574 158.338 10.9574C157.681 10.9574 157.197 11.1255 156.885 11.4615C156.564 11.8148 156.394 12.2794 156.411 12.7561C156.411 13.2988 156.569 13.7382 156.885 14.0743C157.201 14.4103 157.685 14.5784 158.338 14.5784Z" fill="currentColor"/>
<path d="M172.319 25.5572C172.069 25.9272 171.726 26.2247 171.324 26.4198C170.851 26.6402 170.333 26.7471 169.811 26.7322C169.059 26.7322 168.439 26.5563 167.951 26.2044C167.451 25.8375 167.074 25.3274 166.871 24.7419C166.631 24.0729 166.513 23.3663 166.523 22.6557C166.508 21.9329 166.629 21.2137 166.879 20.5352C167.092 19.9547 167.472 19.45 167.971 19.0844C168.457 18.7334 169.061 18.5575 169.782 18.5567C170.647 18.5567 171.319 18.7847 171.796 19.2406C172.267 19.6778 172.565 20.2689 172.636 20.9067H175.901C175.857 19.9303 175.546 18.9846 175 18.1733C174.457 17.3848 173.717 16.7527 172.852 16.3403C171.893 15.8862 170.841 15.6602 169.78 15.6801C168.692 15.6801 167.736 15.8682 166.912 16.2445C166.123 16.5934 165.419 17.1085 164.848 17.7544C164.298 18.3861 163.876 19.1188 163.606 19.9116C163.325 20.7249 163.182 21.5798 163.186 22.4403V22.8959C163.186 23.728 163.324 24.5544 163.593 25.3418C163.862 26.135 164.278 26.8707 164.818 27.5108C165.38 28.1739 166.086 28.7 166.882 29.0491C167.714 29.4254 168.69 29.6132 169.81 29.6124C170.978 29.6124 172.014 29.3887 172.918 28.9414C173.793 28.5187 174.545 27.8791 175.102 27.0836C175.664 26.2653 175.984 25.3059 176.026 24.3147H172.762C172.72 24.7593 172.568 25.1864 172.319 25.5572Z" fill="currentColor"/>
<path d="M188.304 18.1379C187.84 17.3718 187.13 16.7848 186.29 16.4718C185.402 16.1199 184.286 15.944 182.942 15.944C182.51 15.944 182.046 15.944 181.55 15.9559C181.053 15.9677 180.578 15.9843 180.128 16.0162C179.678 16.0482 179.259 16.0801 178.892 16.1121V18.9402C179.34 18.9094 179.848 18.8818 180.416 18.8573C180.983 18.8325 181.547 18.8136 182.108 18.797C182.668 18.7804 183.148 18.7733 183.548 18.7733C184.3 18.7733 184.86 18.9611 185.228 19.3366C185.596 19.7121 185.78 20.2674 185.78 21.0027V21.121H183.141C181.988 21.121 180.979 21.2729 180.116 21.5766C179.253 21.8803 178.589 22.3359 178.124 22.9433C177.66 23.5507 177.428 24.3337 177.428 25.2922C177.428 26.171 177.625 26.9204 178.02 27.5405C178.418 28.1686 178.989 28.6683 179.665 28.9794C180.368 29.3154 181.193 29.4831 182.137 29.4823C183.049 29.4823 183.821 29.3186 184.452 28.9912C185.077 28.6707 185.595 28.1747 185.941 27.5641C186.107 27.2695 186.24 26.9576 186.337 26.6341V29.1474H189.001V21.0985C188.992 19.8845 188.76 18.8976 188.304 18.1379ZM184.368 26.8636C183.962 27.0345 183.525 27.1203 183.084 27.1157C182.316 27.1157 181.728 26.9319 181.32 26.5642C181.126 26.378 180.972 26.1546 180.867 25.9075C180.761 25.6603 180.707 25.3945 180.707 25.1259C180.707 24.8573 180.761 24.5915 180.867 24.3444C180.972 24.0972 181.126 23.8739 181.32 23.6876C181.727 23.32 182.315 23.1362 183.084 23.1362H185.772V24.3349C185.74 25.0378 185.596 25.5931 185.34 26.001C185.113 26.3822 184.774 26.6837 184.368 26.8636Z" fill="currentColor"/>
<path d="M41.1574 21.3505C41.1574 21.3505 36.4372 14.0258 31.5039 14.0258C27.2494 14.0258 23.2176 19.2868 22.1904 20.7317C23.9463 20.1767 27.3501 19.5827 33.2455 20.2051L22.4001 21.6795C23.7413 23.3065 27.8039 27.7901 31.8415 27.7901C36.7749 27.7901 41.1574 21.3505 41.1574 21.3505Z" fill="currentColor"/>
<path d="M20.948 42.2987C20.948 42.2987 13.6143 37.5844 13.6143 32.6594C13.6143 28.4102 18.8805 24.3833 20.3271 23.3574C19.775 25.1111 19.1827 28.5096 19.8023 34.4024L21.2785 23.5692C22.9076 24.9099 27.3966 28.9675 27.3966 32.999C27.3966 37.9204 20.948 42.2987 20.948 42.2987Z" fill="currentColor"/>
<path d="M20.0835 7.62939e-06C20.0835 7.62939e-06 27.416 4.71432 27.416 9.63927C27.416 13.8885 22.1485 17.9153 20.7031 18.9413C21.2587 17.1876 21.8535 13.7891 21.2291 7.8998L19.7529 18.733C18.1238 17.3923 13.6348 13.3348 13.6348 9.30321C13.6348 4.37826 20.0835 7.62939e-06 20.0835 7.62939e-06Z" fill="currentColor"/>
<path d="M0 20.9683C0 20.9683 4.72011 28.2919 9.65111 28.2919C13.9044 28.2919 17.9374 23.0309 18.9646 21.5872C17.2087 22.1422 13.8049 22.7362 7.90832 22.1126L18.7549 20.6382C17.4137 19.0112 13.35 14.5229 9.31345 14.5229C4.38245 14.5229 0 20.9683 0 20.9683Z" fill="currentColor"/>
</svg>
